<svg xmlns="http://www.w3.org/2000/svg" xmlns:xlink="http://www.w3.org/1999/xlink" width="252.139" height="259.135" viewBox="0 0 252.139 259.135">
  <defs>
    <clipPath id="clip-path">
      <rect id="Rectángulo_2468" data-name="Rectángulo 2468" width="252.139" height="259.135" fill="#fff" stroke="#fff" stroke-width="0.5"/>
    </clipPath>
  </defs>
  <g id="Icono_404_desktop" data-name="Icono 404 desktop" transform="translate(0 0)">
    <g id="Grupo_4328" data-name="Grupo 4328" transform="translate(0 0)" clip-path="url(#clip-path)">
      <path id="Trazado_3310" data-name="Trazado 3310" d="M134.418,117.919h0a17.21,17.21,0,0,0-12.252,5.074L69.649,175.511a17.352,17.352,0,0,1-24.512,0L20.63,151a17.336,17.336,0,0,1-1.62-22.646l3.376,3.376,7-7,5.371,5.371a22.11,22.11,0,0,0,31.273,0l12.344-12.344,5.25,5.25,3.494-3.494-5.25-5.25L92.4,103.734l5.745,5.743,3.494-3.494L88.894,93.236l15.762-15.762a7.424,7.424,0,0,0-10.5-10.5L78.4,82.738,60.888,65.228l15.76-15.76a7.423,7.423,0,1,0-10.5-10.5L50.39,54.73,38.13,42.47l-3.494,3.494,5.259,5.259L29.36,61.759,24.1,56.5l-3.494,3.494,5.259,5.256L13.522,77.6a22.106,22.106,0,0,0,0,31.27l5.368,5.371-7,7,3.6,3.6A22.268,22.268,0,0,0,17.136,154.5L41.646,179a22.268,22.268,0,0,0,31.494,0l52.521-52.521A12.384,12.384,0,0,1,143.174,144L97.66,189.514l3.491,3.494,45.516-45.516a17.323,17.323,0,0,0-12.249-29.572M53.872,93.259,29.385,117.746l-1.754-1.751-1.754-1.757L50.365,89.751ZM32.879,121.239,57.366,96.753l3.508,3.508L36.387,124.747l-3.5-3.5Zm11.639,9.376a17.046,17.046,0,0,1-4.529-2.487l24.378-24.378,3.508,3.511Zm18.02-4a17.051,17.051,0,0,1-12.059,5.029l20.89-20.887,3.513,3.513ZM97.649,70.47a2.483,2.483,0,1,1,3.513,3.511L85.4,89.743l-3.511-3.513ZM69.643,42.461a2.483,2.483,0,1,1,3.511,3.513L57.394,61.737l-3.513-3.513ZM43.388,54.716l45.525,45.525L78.376,110.775,32.854,65.25ZM17.013,81.091,29.36,68.744l3.511,3.513L11.987,93.141a17.045,17.045,0,0,1,5.027-12.05m-4,18.011L36.365,75.751l3.508,3.5L15.494,103.634A17.01,17.01,0,0,1,13.01,99.1m5.866,8.137,24.49-24.49,3.508,3.508-24.49,24.49Zm3.508,10.492,3.511,3.511-3.508,3.508-3.511-3.51Z" transform="translate(12.66 66.128)" fill="#fff" stroke="#fff" stroke-width="0.5"/>
      <path id="Trazado_3311" data-name="Trazado 3311" d="M82.356,13.49l-1.069-.011c-.607-.011-15.091-.025-29.891,14.772S36.613,57.535,36.624,58.144l.014,1.066L80.13,102.729l1.041.028c.034,0,.092,0,.182,0,1.8,0,15.5-.484,29.606-14.59,14.781-14.783,14.932-29.446,14.932-30.062l0-1.085Zm24.9,70.974C96.225,95.49,85.5,97.2,82.283,97.471L41.92,57.079c.283-3.256,2.07-14.011,13.181-25.122,11.032-11.029,21.869-12.87,25.133-13.178l40.35,40.353c-.324,3.312-2.215,14.213-13.332,25.332" transform="translate(65.821 24.223)" fill="#fff" stroke="#fff" stroke-width="0.5"/>
      <rect id="Rectángulo_2460" data-name="Rectángulo 2460" width="39.614" height="4.941" transform="translate(117.318 80.587) rotate(-45)" fill="#fff" stroke="#fff" stroke-width="0.5"/>
      <rect id="Rectángulo_2461" data-name="Rectángulo 2461" width="39.615" height="4.94" transform="translate(145.33 108.599) rotate(-45)" fill="#fff" stroke="#fff" stroke-width="0.5"/>
      <path id="Trazado_3312" data-name="Trazado 3312" d="M184.131,87.469l-83.8-83.8a12.534,12.534,0,0,0-17.729,0L26.818,59.458a12.541,12.541,0,0,0,0,17.729l83.8,83.8a12.547,12.547,0,0,0,17.729,0L184.131,105.2a12.552,12.552,0,0,0,0-17.729M180.637,101.7l-55.785,55.785a7.6,7.6,0,0,1-10.741,0l-83.8-83.8a7.6,7.6,0,0,1,0-10.741L86.1,7.166a7.59,7.59,0,0,1,10.741,0l83.8,83.8a7.6,7.6,0,0,1,0,10.741" transform="translate(41.602 0.001)" fill="#fff" stroke="#fff" stroke-width="0.5"/>
      <path id="Trazado_3313" data-name="Trazado 3313" d="M45.022,21.874a4.66,4.66,0,1,0-6.59,0,4.663,4.663,0,0,0,6.59,0" transform="translate(66.62 25.019)" fill="#fff" stroke="#fff" stroke-width="0.5"/>
      <path id="Trazado_3314" data-name="Trazado 3314" d="M66.05,42.9a4.66,4.66,0,1,0,6.59,0,4.663,4.663,0,0,0-6.59,0" transform="translate(116.256 74.653)" fill="#fff" stroke="#fff" stroke-width="0.5"/>
      <rect id="Rectángulo_2462" data-name="Rectángulo 2462" width="4.94" height="29.716" transform="translate(12.285 77.074) rotate(-45)" fill="#fff" stroke="#fff" stroke-width="0.5"/>
      <rect id="Rectángulo_2463" data-name="Rectángulo 2463" width="28.037" height="4.94" transform="translate(0 108.549)" fill="#fff" stroke="#fff" stroke-width="0.5"/>
      <rect id="Rectángulo_2464" data-name="Rectángulo 2464" width="4.94" height="27.832" transform="translate(46.577 61.505)" fill="#fff" stroke="#fff" stroke-width="0.5"/>
      <rect id="Rectángulo_2465" data-name="Rectángulo 2465" width="4.941" height="29.715" transform="translate(215.351 154.1) rotate(-44.996)" fill="#fff" stroke="#fff" stroke-width="0.5"/>
      <rect id="Rectángulo_2466" data-name="Rectángulo 2466" width="28.037" height="4.94" transform="translate(224.102 128.658)" fill="#fff" stroke="#fff" stroke-width="0.5"/>
      <rect id="Rectángulo_2467" data-name="Rectángulo 2467" width="4.94" height="27.832" transform="translate(193.627 159.361)" fill="#fff" stroke="#fff" stroke-width="0.5"/>
    </g>
  </g>
</svg>
