<svg xmlns="http://www.w3.org/2000/svg" width="128" height="128" viewBox="0 0 128 128"><defs><style>.a{fill:#f5c52b;}.b,.d{fill:#361613;}.c{fill:#eee29a;}.d{stroke:#361613;stroke-miterlimit:10;stroke-width:1.192px;}.e{fill:#b5956e;}.f{fill:#402d17;}.g{fill:#9c7d59;}.h{fill:#d5c9a8;opacity:0.69;}.i{fill:#5ad8f5;}.j{fill:#0b2b9e;}</style></defs><g transform="translate(-0.183)"><g transform="translate(0)"><circle class="a" cx="64" cy="64" r="64" transform="translate(0.184)"/></g><g transform="translate(19.98 49.498)"><g transform="translate(0 0)"><g transform="translate(9.207 1.081)"><path class="b" d="M307.576,412.55a.6.6,0,0,1-.214.8,7.822,7.822,0,0,1-4.311.951,6.154,6.154,0,0,1-6.525-6.5,6.544,6.544,0,0,1,1.855-4.854,6.621,6.621,0,0,1,4.883-1.845,7.469,7.469,0,0,1,3.864.854q.466.272.33.622l-.7,2.039q-.214.563-.7.369a8.034,8.034,0,0,0-2.8-.583,2.827,2.827,0,0,0-2.214.932,3.557,3.557,0,0,0-.835,2.466,3.384,3.384,0,0,0,.777,2.32,2.6,2.6,0,0,0,2.058.884,7.417,7.417,0,0,0,3.126-.563q.621-.252.777.233Z" transform="translate(-296.527 -401.094)"/><path class="b" d="M383.521,412.512a7.649,7.649,0,0,1-9.825,0,6.234,6.234,0,0,1-1.864-4.718,6.526,6.526,0,0,1,1.864-4.854,7.464,7.464,0,0,1,9.825,0,6.526,6.526,0,0,1,1.864,4.854A6.234,6.234,0,0,1,383.521,412.512Zm-7.146-2.4a3.264,3.264,0,0,0,4.466,0,3.2,3.2,0,0,0,.854-2.32,3.508,3.508,0,0,0-.854-2.466,3.141,3.141,0,0,0-4.466,0,3.507,3.507,0,0,0-.854,2.466A3.2,3.2,0,0,0,376.375,410.113Z" transform="translate(-359.171 -401.094)"/><path class="b" d="M465.42,404.958q0,.447.612.767a8.949,8.949,0,0,0,1.485.592,13.873,13.873,0,0,1,1.747.68,3.785,3.785,0,0,1,1.485,1.262,3.541,3.541,0,0,1,.612,2.117,3.392,3.392,0,0,1-1.427,2.844,6.074,6.074,0,0,1-3.757,1.078,9.786,9.786,0,0,1-4.214-.8.609.609,0,0,1-.388-.563l.058-2.175q.039-.622.7-.369a10.375,10.375,0,0,0,3.845.835,2.065,2.065,0,0,0,1.2-.272.8.8,0,0,0,.369-.66.827.827,0,0,0-.33-.66,2.656,2.656,0,0,0-.854-.447q-.524-.174-1.155-.349a8.648,8.648,0,0,1-1.272-.466,5.522,5.522,0,0,1-1.165-.709,2.981,2.981,0,0,1-.855-1.184,4.462,4.462,0,0,1-.33-1.777,3.086,3.086,0,0,1,1.32-2.67,5.859,5.859,0,0,1,3.476-.942,9.207,9.207,0,0,1,3.884.777q.485.214.33.621l-.621,1.864a.48.48,0,0,1-.36.311.929.929,0,0,1-.611-.058,6.63,6.63,0,0,0-2.622-.427,1.926,1.926,0,0,0-.864.155A.631.631,0,0,0,465.42,404.958Z" transform="translate(-433.827 -401.094)"/><path class="b" d="M542.557,414.925q.039.524-.447.524h-2.427q-.486,0-.5-.447l-.33-6.854-2.1,4.816a.79.79,0,0,1-.8.5H534.13a.789.789,0,0,1-.8-.5l-2.117-4.816-.33,6.854q-.02.447-.5.447h-2.427q-.485,0-.447-.524l.816-11.476a.63.63,0,0,1,.718-.621h2.369a.79.79,0,0,1,.8.5l2.835,6.485,2.816-6.485a.79.79,0,0,1,.8-.5h2.369q.679,0,.719.621Z" transform="translate(-488.674 -402.536)"/></g><g transform="translate(1.208 15.897)"><path class="b" d="M260,500.808a.6.6,0,0,1-.214.8,7.822,7.822,0,0,1-4.311.951,6.154,6.154,0,0,1-6.524-6.5,6.545,6.545,0,0,1,1.854-4.854,6.622,6.622,0,0,1,4.884-1.845,7.469,7.469,0,0,1,3.864.854q.466.272.33.622l-.7,2.039q-.214.563-.7.369a8.031,8.031,0,0,0-2.8-.583,2.827,2.827,0,0,0-2.214.932,3.557,3.557,0,0,0-.835,2.466,3.384,3.384,0,0,0,.777,2.32,2.6,2.6,0,0,0,2.058.884,7.418,7.418,0,0,0,3.126-.563q.621-.252.777.233Z" transform="translate(-248.951 -489.33)"/><path class="b" d="M333.635,500.769a7.648,7.648,0,0,1-9.825,0,6.234,6.234,0,0,1-1.864-4.718,6.527,6.527,0,0,1,1.864-4.854,7.464,7.464,0,0,1,9.825,0,6.527,6.527,0,0,1,1.864,4.854A6.234,6.234,0,0,1,333.635,500.769Zm-7.146-2.4a3.264,3.264,0,0,0,4.466,0,3.2,3.2,0,0,0,.854-2.32,3.509,3.509,0,0,0-.854-2.466,3.141,3.141,0,0,0-4.466,0,3.506,3.506,0,0,0-.855,2.466A3.2,3.2,0,0,0,326.489,498.371Z" transform="translate(-309.673 -489.33)"/><path class="b" d="M421.183,500.769a7.648,7.648,0,0,1-9.825,0,6.235,6.235,0,0,1-1.864-4.718,6.527,6.527,0,0,1,1.864-4.854,7.464,7.464,0,0,1,9.825,0,6.527,6.527,0,0,1,1.864,4.854A6.234,6.234,0,0,1,421.183,500.769Zm-7.146-2.4a3.264,3.264,0,0,0,4.466,0,3.2,3.2,0,0,0,.854-2.32,3.508,3.508,0,0,0-.854-2.466,3.141,3.141,0,0,0-4.466,0,3.506,3.506,0,0,0-.854,2.466A3.2,3.2,0,0,0,414.037,498.371Z" transform="translate(-382.504 -489.33)"/><path class="b" d="M513.059,499.281a.523.523,0,0,1,.437.184.642.642,0,0,1,.107.5l-.311,1.883a.661.661,0,0,1-.738.6,3.607,3.607,0,0,1-3.5-1.942l-.874-1.67a1.81,1.81,0,0,0-1.321-1.01,7.615,7.615,0,0,1-1.417.291v3.651a.343.343,0,0,1-.388.388h-3.01a.343.343,0,0,1-.388-.388V489.96q0-.33.388-.388l3.01-.349a.327.327,0,0,1,.282.087.409.409,0,0,1,.107.3v5.165a4.189,4.189,0,0,0,2.7-1.408A4.549,4.549,0,0,0,509.2,490a.368.368,0,0,1,.136-.34.6.6,0,0,1,.389-.126h2.6q.466,0,.466.524a7.946,7.946,0,0,1-2.582,5.922,5.712,5.712,0,0,1,.815,1.107l1.049,1.709A1.061,1.061,0,0,0,513.059,499.281Z" transform="translate(-459.176 -489.22)"/><path class="b" d="M584.4,494h-.66v6.99h.66a.343.343,0,0,1,.388.389v1.942a.343.343,0,0,1-.388.388h-5.2a.343.343,0,0,1-.388-.388v-1.942a.343.343,0,0,1,.388-.389h.66V494h-.66a.343.343,0,0,1-.388-.388v-2.136a.343.343,0,0,1,.388-.388h5.2a.343.343,0,0,1,.388.388v2.136A.343.343,0,0,1,584.4,494Z" transform="translate(-523.356 -490.771)"/><path class="b" d="M633.027,500.789q.175.583-.214.8a8.379,8.379,0,0,1-4.583.971,6.659,6.659,0,0,1-3.67-.971,2.965,2.965,0,0,1-1.515-2.6,3.478,3.478,0,0,1,.592-2.049,3.263,3.263,0,0,1,1.738-1.214,3.191,3.191,0,0,1-.447-5.418,5.621,5.621,0,0,1,3.4-.951,8.371,8.371,0,0,1,4.1.8q.466.272.33.621l-.7,1.748q-.233.563-.7.369a9.3,9.3,0,0,0-3.029-.524q-1.418,0-1.417.913a.926.926,0,0,0,.466.8,2.054,2.054,0,0,0,1.165.311l1.825.019a.343.343,0,0,1,.388.388v1.961a.343.343,0,0,1-.388.388l-1.884-.019a2.366,2.366,0,0,0-1.34.311,1,1,0,0,0-.524.874.767.767,0,0,0,.447.709,2.432,2.432,0,0,0,1.165.243,12.453,12.453,0,0,0,2.058-.126,5.46,5.46,0,0,0,1.359-.437.693.693,0,0,1,.476-.058.415.415,0,0,1,.3.291Z" transform="translate(-560.153 -489.33)"/><path class="b" d="M690.3,493.216q0,.447.612.767a8.966,8.966,0,0,0,1.485.592,13.891,13.891,0,0,1,1.748.68,3.787,3.787,0,0,1,1.485,1.262,3.542,3.542,0,0,1,.612,2.116,3.393,3.393,0,0,1-1.427,2.845,6.076,6.076,0,0,1-3.757,1.078,9.788,9.788,0,0,1-4.214-.8.609.609,0,0,1-.388-.563l.058-2.175q.039-.621.7-.369a10.375,10.375,0,0,0,3.845.835,2.064,2.064,0,0,0,1.2-.272.8.8,0,0,0,.369-.66.828.828,0,0,0-.33-.66,2.657,2.657,0,0,0-.854-.447q-.524-.174-1.156-.349a8.665,8.665,0,0,1-1.272-.466,5.523,5.523,0,0,1-1.165-.709A2.975,2.975,0,0,1,687,494.74a4.455,4.455,0,0,1-.33-1.777,3.086,3.086,0,0,1,1.32-2.67,5.86,5.86,0,0,1,3.476-.942,9.206,9.206,0,0,1,3.884.777q.485.214.33.621l-.621,1.864a.48.48,0,0,1-.359.311.929.929,0,0,1-.611-.058,6.629,6.629,0,0,0-2.621-.427,1.926,1.926,0,0,0-.864.155A.631.631,0,0,0,690.3,493.216Z" transform="translate(-612.903 -489.33)"/></g><g transform="translate(0 4.885)"><path class="c" d="M247.254,426.347l-1.683-.792-.045-.045-.793-1.683a.188.188,0,0,0-.34,0l-.793,1.683-.045.045-1.683.792a.188.188,0,0,0,0,.34l1.683.792.045.045.793,1.683a.188.188,0,0,0,.34,0l.793-1.683.045-.045,1.683-.792A.188.188,0,0,0,247.254,426.347Z" transform="translate(-241.765 -423.719)"/><path class="c" d="M730.433,433.978l-1.683-.792-.045-.045-.792-1.683a.188.188,0,0,0-.34,0l-.792,1.683-.045.045-1.683.792a.188.188,0,0,0,0,.34l1.683.793.045.045.792,1.683a.188.188,0,0,0,.34,0l.792-1.683.045-.045,1.683-.793A.188.188,0,0,0,730.433,433.978Z" transform="translate(-643.712 -430.067)"/></g><g transform="translate(16.895 31.826)"><path class="d" d="M344.6,586.51c.031.071.005.109-.078.117l-.317.04a.1.1,0,0,1-.118-.08l-.159-.425h-1l-.141.39a.109.109,0,0,1-.115.083h-.332q-.119,0-.079-.123l.8-2.139a.121.121,0,0,1,.123-.083h.44a.12.12,0,0,1,.126.082Zm-1.516-.753h.694l-.355-.952Z" transform="translate(-342.256 -584.236)"/><path class="d" d="M377.216,586.115a.094.094,0,0,1-.032.123,1.465,1.465,0,0,1-.8.184,1.143,1.143,0,0,1-1.212-1.208,1.229,1.229,0,0,1,.337-.9,1.19,1.19,0,0,1,.889-.343,1.384,1.384,0,0,1,.739.173c.048.026.065.059.05.1l-.1.3c-.022.06-.058.078-.108.054a1.453,1.453,0,0,0-.577-.13.625.625,0,0,0-.489.207.789.789,0,0,0-.186.546.737.737,0,0,0,.182.519.618.618,0,0,0,.478.2,1.323,1.323,0,0,0,.617-.13c.063-.029.1-.017.119.036Z" transform="translate(-369.641 -583.969)"/><path class="d" d="M398.065,586.09a1.391,1.391,0,0,1-1.8,0,1.164,1.164,0,0,1-.343-.877,1.245,1.245,0,1,1,2.489,0A1.165,1.165,0,0,1,398.065,586.09Zm-1.4-.352a.723.723,0,0,0,1,0,.732.732,0,0,0,.189-.525.792.792,0,0,0-.189-.55.7.7,0,0,0-1,0,.792.792,0,0,0-.189.55A.732.732,0,0,0,396.664,585.738Z" transform="translate(-386.897 -583.969)"/><path class="d" d="M421.491,586.09a1.391,1.391,0,0,1-1.8,0,1.164,1.164,0,0,1-.343-.877,1.245,1.245,0,1,1,2.488,0A1.165,1.165,0,0,1,421.491,586.09Zm-1.4-.352a.723.723,0,0,0,1,0,.732.732,0,0,0,.189-.525.792.792,0,0,0-.189-.55.7.7,0,0,0-1,0,.792.792,0,0,0-.189.55A.732.732,0,0,0,420.09,585.738Z" transform="translate(-406.385 -583.969)"/><path class="d" d="M445.858,586.306a.072.072,0,0,1,.007.075.066.066,0,0,1-.065.036l-.392,0a.167.167,0,0,1-.155-.069l-.463-.807a1.532,1.532,0,0,1-.429.1v.71a.054.054,0,0,1-.061.061h-.44a.054.054,0,0,1-.061-.061v-2.218c0-.034.02-.053.061-.058l.44-.05c.041-.007.061.012.061.058v1.064a.89.89,0,0,0,.6-.283.959.959,0,0,0,.272-.723.057.057,0,0,1,.02-.054.1.1,0,0,1,.063-.018h.382q.068,0,.068.087a1.469,1.469,0,0,1-.531,1.122Z" transform="translate(-426.728 -584.015)"/><path class="d" d="M465.707,586.573a.054.054,0,0,1-.061.061h-.44a.054.054,0,0,1-.062-.061v-2.222a.054.054,0,0,1,.062-.061h.44a.054.054,0,0,1,.061.061Z" transform="translate(-444.484 -584.236)"/><path class="d" d="M480.9,586.2q.094,0,.083.09l-.04.289c0,.038-.024.057-.058.057h-1.616c-.06,0-.09-.031-.09-.094v-2.157c0-.062.03-.094.09-.094H480.8a.051.051,0,0,1,.058.058l.018.289c0,.06-.029.09-.087.09h-1.053v.505h.866c.038,0,.058.02.058.061v.321c0,.041-.02.061-.058.061h-.866v.523Z" transform="translate(-456.156 -584.236)"/><path class="d" d="M510.349,584.03a.049.049,0,0,1,.043.014.064.064,0,0,1,.018.047l-.007,1.443a.414.414,0,0,0,.137.325.519.519,0,0,0,.36.123.51.51,0,0,0,.354-.123.415.415,0,0,0,.137-.325v-1.4c0-.041.019-.061.058-.061h.418a.054.054,0,0,1,.062.061v1.4a.878.878,0,0,1-.281.68,1.209,1.209,0,0,1-1.493,0,.879.879,0,0,1-.281-.68v-1.4a.054.054,0,0,1,.061-.061Z" transform="translate(-481.693 -584.019)"/><path class="d" d="M534.561,584.211a.054.054,0,0,1,.061.061v2.2q0,.079-.072.079h-.35a.168.168,0,0,1-.148-.057l-1.093-1.49v1.486a.054.054,0,0,1-.061.061h-.4a.054.054,0,0,1-.062-.061v-2.179a.073.073,0,0,1,.069-.079l.31-.04a.157.157,0,0,1,.155.058l1.13,1.591v-1.574a.054.054,0,0,1,.061-.061Z" transform="translate(-500.466 -584.157)"/><path class="d" d="M556.665,586.573a.054.054,0,0,1-.061.061h-.44a.054.054,0,0,1-.061-.061v-2.222a.054.054,0,0,1,.061-.061h.44a.054.054,0,0,1,.061.061Z" transform="translate(-520.15 -584.236)"/><path class="d" d="M570.841,584.162a.073.073,0,0,1,.059.024.06.06,0,0,1,.005.063l-.793,2.179a.118.118,0,0,1-.123.086h-.534a.116.116,0,0,1-.119-.086l-.765-2.153c-.019-.053,0-.083.058-.09l.429-.047a.075.075,0,0,1,.09.061l.581,1.81.588-1.781a.085.085,0,0,1,.087-.065Z" transform="translate(-530.518 -584.108)"/><path class="d" d="M593.347,586.2c.063,0,.09.03.083.09l-.04.289c0,.038-.024.057-.058.057h-1.616c-.06,0-.09-.031-.09-.094v-2.157c0-.062.03-.094.09-.094h1.536a.051.051,0,0,1,.058.058l.018.289c0,.06-.029.09-.087.09H592.19v.505h.865q.058,0,.058.061v.321q0,.061-.058.061h-.865v.523Z" transform="translate(-549.703 -584.236)"/><path class="d" d="M613.538,585.733l.364.786a.08.08,0,0,1,.007.079.064.064,0,0,1-.061.032l-.422,0a.1.1,0,0,1-.1-.064l-.291-.714q-.04,0-.123,0H612.5v.714c0,.041-.019.061-.058.061h-.415a.054.054,0,0,1-.061-.061v-2.164a.117.117,0,0,1,.032-.087.112.112,0,0,1,.083-.032h.847a1.165,1.165,0,0,1,.745.207.706.706,0,0,1,.258.583A.674.674,0,0,1,613.538,585.733Zm-1.041-.274h.411a.544.544,0,0,0,.346-.1.338.338,0,0,0,.123-.281.309.309,0,0,0-.121-.261.532.532,0,0,0-.33-.092H612.5Z" transform="translate(-566.62 -584.236)"/><path class="d" d="M633.567,584.645a.2.2,0,0,0,.125.172,2.147,2.147,0,0,0,.3.135l.353.132a.656.656,0,0,1,.3.231.667.667,0,0,1,.12.406.6.6,0,0,1-.258.508,1.107,1.107,0,0,1-.676.191,1.7,1.7,0,0,1-.786-.166.093.093,0,0,1-.058-.086l.007-.321c.005-.067.041-.085.108-.054a1.759,1.759,0,0,0,.728.17.509.509,0,0,0,.294-.07.214.214,0,0,0,.1-.182.2.2,0,0,0-.067-.153.508.508,0,0,0-.172-.1l-.228-.086-.254-.095a.946.946,0,0,1-.235-.126.569.569,0,0,1-.171-.214.722.722,0,0,1-.067-.321.556.556,0,0,1,.234-.473,1.013,1.013,0,0,1,.617-.173h0a1.582,1.582,0,0,1,.729.155q.076.033.047.1l-.09.274a.073.073,0,0,1-.054.049.138.138,0,0,1-.094-.009,1.169,1.169,0,0,0-.541-.1Q633.566,584.43,633.567,584.645Z" transform="translate(-584.109 -583.969)"/><path class="d" d="M654.764,586.2c.063,0,.09.03.083.09l-.04.289c0,.038-.024.057-.058.057h-1.616c-.06,0-.09-.031-.09-.094v-2.157c0-.062.03-.094.09-.094h1.536a.051.051,0,0,1,.058.058l.018.289c0,.06-.029.09-.087.09h-1.053v.505h.865q.058,0,.058.061v.321q0,.061-.058.061h-.865v.523Z" transform="translate(-600.794 -584.236)"/></g><g transform="translate(61.073)"><g transform="translate(2.345)"><path class="e" d="M626.35,394.678a6.881,6.881,0,0,1,4.713,2.208,6.994,6.994,0,0,1-9.613,10.15,7.162,7.162,0,0,1-.3-10.533A7,7,0,0,1,626.35,394.678Z" transform="translate(-618.984 -394.664)"/><path class="f" d="M667.945,465.548c.066-.525-.146-.624-.418-.566a.927.927,0,0,0-.586.431l-.072.118C666.689,466.024,667.873,466.157,667.945,465.548Z" transform="translate(-658.803 -453.147)"/></g><path class="g" d="M631.34,448.91l.013-.013a.463.463,0,0,0,.132-.386.436.436,0,0,0-.657-.321.973.973,0,0,0-.323.469.453.453,0,0,0-.044.274.322.322,0,0,0,.334.22A.819.819,0,0,0,631.34,448.91Z" transform="translate(-626.18 -439.138)"/><path class="g" d="M644.44,399.315l.02-.011a.543.543,0,0,0,.287-.373c.049-.367-.356-.566-.688-.453a1.321,1.321,0,0,0-.545.423.483.483,0,0,0-.144.274c-.007.174.174.264.331.289A1.249,1.249,0,0,0,644.44,399.315Z" transform="translate(-636.924 -397.81)"/><path class="f" d="M672.069,416.7a.375.375,0,0,0-.325-.106.318.318,0,0,0-.191.028.78.78,0,0,0-.192.136c-.282.187-.542.515-.354.859a.536.536,0,0,0,.905.031,1.9,1.9,0,0,0,.2-.386A.453.453,0,0,0,672.069,416.7Z" transform="translate(-659.862 -412.901)"/><path class="g" d="M659.118,435.9a.4.4,0,0,0-.127-.263.647.647,0,0,0-.559-.1.354.354,0,0,0-.284.356.385.385,0,0,0,.208.522.536.536,0,0,0,.47-.015A.461.461,0,0,0,659.118,435.9Zm-.476.312h0C658.652,436.21,658.657,436.209,658.642,436.211Zm.019,0c.038,0,.03.005,0,0Z" transform="translate(-649.189 -428.651)"/><path class="f" d="M633.318,446.023a.579.579,0,0,0-.334.222.556.556,0,0,0-.123.189.426.426,0,0,0,.038.385.371.371,0,0,0,.339.31.519.519,0,0,0,.424-.217.535.535,0,0,0,.151-.145A.482.482,0,0,0,633.318,446.023Z" transform="translate(-628.158 -437.378)"/><path class="f" d="M661.269,437.843a.46.46,0,0,0-.438-.5.861.861,0,0,0-.5.148.577.577,0,0,0-.219.216.4.4,0,0,0,.014.4.549.549,0,0,0,.533.227.654.654,0,0,0,.253-.042A.565.565,0,0,0,661.269,437.843Z" transform="translate(-650.813 -430.167)"/><path class="g" d="M675.948,452.046l0,0c.132-.257.177-.648-.105-.824-.345-.216-.7.143-.815.453,0,.007,0,.014-.005.021a.636.636,0,0,0-.14.357.433.433,0,0,0,.339.428.488.488,0,0,0,.3-.017.477.477,0,0,0,.131-.035A.5.5,0,0,0,675.948,452.046Z" transform="translate(-663.142 -441.655)"/><path class="g" d="M662.243,408.226l0,0c.256.134.647.181.825-.1.218-.343-.138-.706-.447-.817l-.021-.006a.635.635,0,0,0-.356-.142.433.433,0,0,0-.43.337.487.487,0,0,0,.015.3.479.479,0,0,0,.034.132A.5.5,0,0,0,662.243,408.226Z" transform="translate(-652.258 -405.063)"/><path class="f" d="M631.166,420.891a.369.369,0,0,0-.212-.258.524.524,0,0,0-.61-.026.387.387,0,0,0-.2.34.487.487,0,0,0-.091.252.394.394,0,0,0,.209.367.463.463,0,0,0,.387.007,1,1,0,0,0,.123-.054.615.615,0,0,0,.18-.126l.01-.011a.585.585,0,0,0,.132-.215A.325.325,0,0,0,631.166,420.891Z" transform="translate(-625.847 -416.175)"/><path class="h" d="M652.8,409.286a6.9,6.9,0,0,0-2.04-10.449,6.511,6.511,0,0,0-2.655-.753,6.642,6.642,0,0,0-2.729.408,7.428,7.428,0,0,1,6.485,11.653A6.273,6.273,0,0,0,652.8,409.286Z" transform="translate(-638.595 -397.498)"/><path class="f" d="M691.148,426.577a.412.412,0,0,0-.458-.336l-.026.006h-.009a.56.56,0,0,0-.455.22.6.6,0,0,0-.121.479.51.51,0,0,0,.912.174A.716.716,0,0,0,691.148,426.577Z" transform="translate(-675.771 -420.928)"/><g transform="translate(0 2.716)"><path class="i" d="M698.04,411.926c.2.438-.592,1.4-2.068,2.535a7.481,7.481,0,0,1,.052,1.051c2.4-1.821,3.75-3.538,3.446-4.193-.28-.6-2.131-.681-4.7-.142q.194.292.358.6C696.746,411.472,697.851,411.52,698.04,411.926Z" transform="translate(-679.682 -410.817)"/><path class="i" d="M609.347,451.221c-1.666.353-2.808.341-3-.07-.178-.382.416-1.191,1.555-2.166-.084-.211-.158-.425-.222-.643-1.866,1.537-2.87,2.9-2.6,3.472.292.629,2.309.711,5.065.11-.1-.076-.2-.154-.3-.235A6.758,6.758,0,0,1,609.347,451.221Z" transform="translate(-605.035 -442.034)"/><path class="j" d="M613.622,453.893c-.123-.263.18-.734.8-1.319-.064-.135-.126-.271-.181-.41-1.139.976-1.733,1.784-1.555,2.166.191.411,1.333.422,3,.07q-.187-.194-.357-.4C614.379,454.2,613.756,454.181,613.622,453.893Z" transform="translate(-611.378 -445.214)"/><path class="j" d="M699.813,415.7c-.188-.405-1.293-.453-2.914-.146.068.128.133.257.194.388,1-.155,1.652-.1,1.788.2.145.313-.324.867-1.224,1.55.036.182.065.365.087.549C699.22,417.105,700.016,416.142,699.813,415.7Z" transform="translate(-681.455 -414.595)"/><path class="i" d="M637.528,436.659a30.1,30.1,0,0,0,3.91-2.206c.453-.3.878-.607,1.276-.908a7.472,7.472,0,0,0-.052-1.051c-.336.258-.706.525-1.108.8a34.748,34.748,0,0,1-9.756,4.478c-.392.106-.763.2-1.113.269a6.763,6.763,0,0,0,.5.468c.1.082.2.16.3.235q.635-.139,1.319-.326A29.843,29.843,0,0,0,637.528,436.659Z" transform="translate(-626.373 -428.849)"/><path class="j" d="M639.76,429.958a41.653,41.653,0,0,1-4.735,2.568,39.2,39.2,0,0,1-5.433,2.135c-.375.109-.72.2-1.03.26q.169.206.357.4c.35-.074.721-.163,1.113-.269a34.751,34.751,0,0,0,9.756-4.478c.4-.272.773-.538,1.108-.8-.022-.184-.052-.367-.087-.549C640.506,429.46,640.154,429.7,639.76,429.958Z" transform="translate(-624.607 -426.134)"/></g></g></g></g></g></svg>