<svg xmlns="http://www.w3.org/2000/svg" width="128" height="128" viewBox="0 0 128 128"><defs><style>.a{fill:#be0055;}.b{fill:#fff;}</style></defs><g transform="translate(6547.906 4477.238)"><circle class="a" cx="64" cy="64" r="64" transform="translate(-6547.906 -4477.238)"/><g transform="translate(-6536.063 -4436.343)"><g transform="translate(0 0)"><path class="b" d="M-6303.891-3982.107a11.036,11.036,0,0,0-2.077,17.5c-5.606-.584-12.8,3.929-13.742,9.355-4.492-3.538-14.872-3.795-19.116,4.275-3.658-4.4-14.229-4.206-19.44,2.35-3.127-5.952-13.629-6.422-19.5-.555-2.474-5.7-9.864-8.412-19.014-2.749-.705-5.848-5.043-9.7-11.422-9.43a11.036,11.036,0,0,0,2.077-17.5c5.6.584,12.8-3.929,13.741-9.356,4.492,3.539,14.872,3.795,19.116-4.275,3.658,4.4,14.229,4.207,19.439-2.35,3.128,5.952,13.629,6.423,19.5.555,2.475,5.7,9.613,8.345,19.015,2.749C-6314.607-3985.689-6310.27-3981.835-6303.891-3982.107Z" transform="translate(6408.206 3994.841)"/><path class="a" d="M-6241.409-3813.594a3.4,3.4,0,0,0-2.128-.667c-.472.016-1.5.086-2.5.181.351-1.082.728-2.17,1.109-3.218a2.508,2.508,0,0,0,1.97.853,12.038,12.038,0,0,0,3.482-1.307,3.714,3.714,0,0,0-1.046-1.09,2.292,2.292,0,0,0-1.592-.6,8.608,8.608,0,0,0-2.212.536c.324-.842.642-1.635.939-2.345a45.351,45.351,0,0,0,5.262-1.146,3.005,3.005,0,0,0-.846-1.3,2.775,2.775,0,0,0-2.312-.809,28.573,28.573,0,0,0-3.691.425c-1.815,3.206-4.032,8.5-4.038,10.014a2.794,2.794,0,0,0,1.047,1.95,3.467,3.467,0,0,0,2.5,1.1,18.1,18.1,0,0,0,5.042-1.658A3.929,3.929,0,0,0-6241.409-3813.594Zm12.35-8.311a4.384,4.384,0,0,0-.721-1.7,3.128,3.128,0,0,0-2.947-1.2c-.978.034-3.073.285-4.609.457a8.075,8.075,0,0,0,.8,3.02c-.674,1.352-1.3,2.724-1.8,3.982a12.928,12.928,0,0,0-1.216,4.223c.039,1.125.908,1.391,2.543,1.512.384-1.435.842-2.924,1.319-4.36.659,2.281,2.509,4.226,3.774,4.182a2.245,2.245,0,0,0,1.561-1.151,4.32,4.32,0,0,0,.709-1.745,8.409,8.409,0,0,1-3.88-1.613c3.028-.728,5.357-1.966,5.278-4.217A1.719,1.719,0,0,0-6229.059-3821.9Zm-6.112,4.4c.542-1.552,1.082-2.987,1.545-4.161a18.321,18.321,0,0,1,2.89-.387C-6230.727-3820.852-6232.289-3818.95-6235.171-3817.506Zm-16.83-6.51a73.164,73.164,0,0,0-5.3,7.716c.354-2.621.611-5.417.591-6.01-.042-1.185-.91-1.421-2.6-1.362a5.612,5.612,0,0,0-1.151.129,60.6,60.6,0,0,0-3.458,7.088,12.929,12.929,0,0,0-1.216,4.223c.039,1.125.909,1.391,2.543,1.512a83.647,83.647,0,0,1,3.406-9.458c-.373,2.918-.992,6.408-.957,7.416.047,1.333,1.1,1.74,2.7,1.862,1.2-2.977,4.444-7.715,6.254-10.24-.721,1.448-1.468,2.987-1.984,4.309a12.935,12.935,0,0,0-1.217,4.223c.04,1.125.909,1.391,2.543,1.512a108.274,108.274,0,0,1,4.427-12.488C-6248.186-3824.3-6251.033-3824.316-6252-3824.016Zm52.332,6.059a12.057,12.057,0,0,0,3.482-1.308,3.726,3.726,0,0,0-1.046-1.09,2.3,2.3,0,0,0-1.592-.6,8.527,8.527,0,0,0-2.207.521c.321-.837.637-1.625.933-2.33a45.211,45.211,0,0,0,5.262-1.146,3.008,3.008,0,0,0-.846-1.3,2.773,2.773,0,0,0-2.311-.809,28.4,28.4,0,0,0-3.691.426c-1.815,3.206-4.031,8.5-4.038,10.013a2.794,2.794,0,0,0,1.046,1.95,3.468,3.468,0,0,0,2.5,1.1,18.075,18.075,0,0,0,5.041-1.658,3.906,3.906,0,0,0-.98-.914,3.4,3.4,0,0,0-2.128-.667c-.473.017-1.5.086-2.5.181.351-1.082.728-2.171,1.11-3.218A2.51,2.51,0,0,0-6199.669-3817.957Zm13.99-7.723a3.123,3.123,0,0,0-2.224-.841,4.52,4.52,0,0,0-2.215.711c-.074,0-.148-.005-.221,0-2.813.1-5.626,5.266-5.51,8.612a4.249,4.249,0,0,0,1.778,3.377,4.063,4.063,0,0,0,2.789.911c4.264-.149,6.782-6.166,6.8-9.754A3.418,3.418,0,0,0-6185.679-3825.68Zm-6.459,11.136a1.436,1.436,0,0,1-.333-.028,2.615,2.615,0,0,1-.241-1.138,14.57,14.57,0,0,1,.955-5.373,3.434,3.434,0,0,0,1.165.7c.859-2.333,1.785-4,2.977-4.626a2.944,2.944,0,0,1,.086.665C-6187.416-3821.083-6189.591-3814.633-6192.138-3814.544Zm-15.447-11.052c-1.116,3.686-2.111,6.6-2.847,8.46-.9,2.324-1.577,3.231-2.7,3.327a2.418,2.418,0,0,1-.286-1.3c-.067-1.954,2.021-7.512,2.837-9.615a4.836,4.836,0,0,0-2.655-.471c-1.694,3.261-3.355,7.47-3.293,9.276a3.18,3.18,0,0,0,1.609,2.79,5.477,5.477,0,0,0,2.938.935c1.776-.062,3.756-1.109,4.965-4.709a64.377,64.377,0,0,0,2.144-8.228A5.052,5.052,0,0,0-6207.585-3825.6Zm-9.079,4.052a3.449,3.449,0,0,0-1.2-3.011,3.4,3.4,0,0,0-2.459-.833c-5.212.182-7.821,6.113-7.709,9.312a4.248,4.248,0,0,0,1.778,3.377,4.061,4.061,0,0,0,2.789.911c.068,0,.134-.01.2-.016.755,1.986,2.25,2.865,3.249,2.831a2.221,2.221,0,0,0,1.738-1.158,4.324,4.324,0,0,0,.71-1.744,4.748,4.748,0,0,1-3.263-.833C-6218.187-3814.558-6216.681-3818.774-6216.664-3821.544Zm-5.072,6.768a13.153,13.153,0,0,1-.261-2.431c-1.072-.14-1.783.744-1.732,3.025.011.258.034.5.063.74a3.128,3.128,0,0,1-.421.043,2.191,2.191,0,0,1-.573-.053,2.616,2.616,0,0,1-.239-1.134c-.1-2.971,1.814-8.159,4.994-9.339a2.748,2.748,0,0,1,.1.712A19.036,19.036,0,0,1-6221.736-3814.776Z" transform="translate(6277.267 3840.792)"/></g></g></g></svg>