<svg xmlns="http://www.w3.org/2000/svg" width="128" height="128" viewBox="0 0 128 128"><defs><style>.a{fill:#fff;}.b{fill:#bf032c;}</style></defs><circle class="a" cx="64" cy="64" r="64"/><g transform="translate(12.627 50.999)"><path class="b" d="M64.308,48.244a36.423,36.423,0,0,0-1.478,4.4c-.131.263-.787.23-.886-.033.623-2.856-.2-4.4-3.579-4.4a11.761,11.761,0,0,0-8.4,3.677A14.979,14.979,0,0,0,46.087,61.7c0,4.662,2.2,7.19,6.369,7.19,3.415,0,5.483-2,7.059-4.6.329-.131.69-.065.788.23a29.964,29.964,0,0,1-2.134,4.629,18.022,18.022,0,0,0-2.594.361,18.363,18.363,0,0,1-3.184.394c-4.268,0-9.193-1.937-9.193-8.832A13.765,13.765,0,0,1,47.893,51.2a16.5,16.5,0,0,1,11.031-4.005A14.674,14.674,0,0,1,64.308,48.244Z" transform="translate(-43.198 -45.911)"/><path class="b" d="M87.8,61.2a1.372,1.372,0,0,1,1.609.492c-.493,1.215-3.349,8.47-4.4,11.458-.2.558-.033.755.23.755.558,0,1.51-.558,3.381-2.2a.441.441,0,0,1,.459.427c-1.378,1.838-3.709,3.677-5.515,3.677a.9.9,0,0,1-.952-.886,4.224,4.224,0,0,1,.329-1.28l1.083-2.955-.1-.033c-2.331,2.889-5.68,5.154-7.223,5.154a1.651,1.651,0,0,1-1.445-1.838A14.223,14.223,0,0,1,78.15,67.6a14.3,14.3,0,0,1,4.334-4.235,5.749,5.749,0,0,1,2.955-.952,1.617,1.617,0,0,1,.787.2,1.9,1.9,0,0,1,.657.689ZM82.09,64.941c-2.1,1.871-4.1,6.172-4.1,8.5,0,.394.2.624.492.624.329,0,1.314-.427,3.185-2.134a15.875,15.875,0,0,0,4.4-7.092,1.726,1.726,0,0,0-1.641-1.182C83.633,63.66,83.108,64.022,82.09,64.941Z" transform="translate(-56.938 -51.872)"/><path class="b" d="M109.074,64.462a1.148,1.148,0,0,1-.591,1.017.539.539,0,0,1-.623-.262,2.534,2.534,0,0,0-2-1.05,1.335,1.335,0,0,0-1.346,1.313,5.6,5.6,0,0,0,1.116,2.988c.821,1.379,1.313,2.2,1.248,3.645a4.549,4.549,0,0,1-1.708,3.152,5.051,5.051,0,0,1-3.316,1.181,1.93,1.93,0,0,1-2-1.74,1.6,1.6,0,0,1,.492-1.084.656.656,0,0,1,.886,0,3.685,3.685,0,0,0,2.265,1.313,1.79,1.79,0,0,0,1.576-1.871,6.742,6.742,0,0,0-1.215-2.889,6.649,6.649,0,0,1-1.149-3.053c0-1.281.558-2.233,1.969-3.447a4.281,4.281,0,0,1,2.43-1.084A1.978,1.978,0,0,1,109.074,64.462Z" transform="translate(-67.474 -52.509)"/><path class="b" d="M128.122,64.527a1.578,1.578,0,0,1-1.609,1.543.621.621,0,0,1-.656-.591c-.132-.821-.066-1.805-1.149-1.805-.722,0-1.74.689-2.758,2.2a14.116,14.116,0,0,0-2.2,6.8c-.066,1.642.623,2.134,1.412,2.134,1.084,0,2.3-.854,3.546-2a.4.4,0,0,1,.427.558,7.367,7.367,0,0,1-5.418,3.086c-1.28,0-2.462-.952-2.462-3.48a12.675,12.675,0,0,1,4.17-8.47,6.368,6.368,0,0,1,4.268-1.9C127.334,62.59,128.122,63.51,128.122,64.527Z" transform="translate(-74.933 -52.509)"/><path class="b" d="M147.778,61.2a1.371,1.371,0,0,1,1.608.492c-.492,1.215-3.348,8.47-4.4,11.458-.2.558-.033.755.229.755.558,0,1.51-.558,3.382-2.2a.442.442,0,0,1,.459.427c-1.379,1.838-3.709,3.677-5.516,3.677a.9.9,0,0,1-.952-.886,4.244,4.244,0,0,1,.329-1.28L144,70.687l-.1-.033c-2.331,2.889-5.679,5.154-7.222,5.154a1.651,1.651,0,0,1-1.445-1.838,14.226,14.226,0,0,1,2.889-6.369,14.3,14.3,0,0,1,4.334-4.235,5.747,5.747,0,0,1,2.955-.952,1.622,1.622,0,0,1,.788.2,1.9,1.9,0,0,1,.657.689Zm-5.713,3.743c-2.1,1.871-4.1,6.172-4.1,8.5,0,.394.2.624.493.624.328,0,1.313-.427,3.184-2.134a15.871,15.871,0,0,0,4.4-7.092A1.727,1.727,0,0,0,144.4,63.66C143.608,63.66,143.082,64.022,142.065,64.941Z" transform="translate(-82.638 -51.872)"/><path class="b" d="M166.84,60.743h.066c2.3-3.48,4.5-5.712,6.96-5.712a2.656,2.656,0,0,1,2.823,2.955c0,2.266-1.576,5.122-4.235,7.716-2.692,2.593-5.122,3.184-6.271,3.184-1.772,0-2.626-1.149-2.626-3.02a22.022,22.022,0,0,1,1.674-6.467l3.808-10.112c.69-1.838.788-2.429.329-2.725l-.755-.525a.418.418,0,0,1,.1-.46,13.089,13.089,0,0,1,3.94-.623l.131.2c-.69,1.838-1.182,3.086-1.674,4.367Zm2-1.149c-2.069,2.364-3.086,5.056-3.086,6.566,0,1.281.591,1.708,1.149,1.708.492,0,1.74-.624,3.152-2.2,2.035-2.3,4.465-6.468,4.465-8.34a1.059,1.059,0,0,0-1.149-1.182C172.487,56.147,170.878,57.264,168.843,59.594Z" transform="translate(-94.775 -44.95)"/><path class="b" d="M197.492,64.56c0,2.5-3.251,4.136-7.978,5.45a8.263,8.263,0,0,0-.459,2.921A1.682,1.682,0,0,0,190.63,74.8c1.182,0,2-.657,3.447-1.9a.44.44,0,0,1,.427.558c-2,2.463-3.874,2.988-5.252,2.988-1.97,0-2.66-1.838-2.66-3.447a12.34,12.34,0,0,1,4.892-8.831,6.3,6.3,0,0,1,3.94-1.576A2.058,2.058,0,0,1,197.492,64.56Zm-5.22.623a13.08,13.08,0,0,0-2.43,3.841,9.54,9.54,0,0,0,4.4-2.429,3.706,3.706,0,0,0,1.281-2.233.7.7,0,0,0-.755-.755C194.308,63.608,193.454,63.9,192.272,65.183Z" transform="translate(-104.646 -52.509)"/><path class="b" d="M209.137,66.293c-.263.755-.23,1.084.131,1.084.722,0,2.265-1.609,3.776-3.316a.424.424,0,0,1,.526.459c-.854,1.641-2.923,4.366-5.647,4.366-.985,0-1.28-.459-1.28-.985a9.873,9.873,0,0,1,.722-2.791l5.22-15.529c.788-2.3.459-2.626-.033-2.856l-.591-.262a.342.342,0,0,1,0-.526,19.138,19.138,0,0,1,4.136-.985l.165.2c-.427,1.182-.755,2.1-1.937,5.647Z" transform="translate(-113.237 -44.951)"/></g></svg>