<svg xmlns="http://www.w3.org/2000/svg" xmlns:xlink="http://www.w3.org/1999/xlink" width="52" height="52" viewBox="0 0 52 52"><defs><style>.a{fill:#26202b;}.b{fill:#fff;}.c{filter:url(#a);}</style><filter id="a" x="0" y="0" width="52" height="52" filterUnits="userSpaceOnUse"><feOffset dy="1" input="SourceAlpha"/><feGaussianBlur stdDeviation="1" result="b"/><feFlood flood-opacity="0.161"/><feComposite operator="in" in2="b"/><feComposite in="SourceGraphic"/></filter></defs><g transform="translate(-1364 -871)"><g class="c" transform="matrix(1, 0, 0, 1, 1364, 871)"><circle class="a" cx="23" cy="23" r="23" transform="translate(3 2)"/></g><g transform="translate(1381.999 797.859)"><path class="b" d="M9.649,108.14a1.347,1.347,0,0,1-.955-.4l-8.3-8.3a1.351,1.351,0,0,1,1.911-1.911l7.342,7.342,7.342-7.342A1.351,1.351,0,1,1,18.9,99.448l-8.3,8.3A1.347,1.347,0,0,1,9.649,108.14Z" transform="translate(-2 -3)"/></g></g></svg>