<svg xmlns="http://www.w3.org/2000/svg" xmlns:xlink="http://www.w3.org/1999/xlink" width="494.349" height="54.481" viewBox="0 0 494.349 54.481"><defs><style>.a{fill:#fff;}.b{fill:url(#a);}.c{fill:#ffc900;}.d{fill:url(#b);}.e{fill:url(#c);}.f{fill:url(#d);}</style><linearGradient id="a" x1="0.286" y1="0.444" x2="0.872" y2="0.574" gradientUnits="objectBoundingBox"><stop offset="0" stop-color="#d9000d"/><stop offset="1" stop-color="#750000"/></linearGradient><linearGradient id="b" x1="0.103" y1="0.5" x2="0.886" y2="0.5" gradientUnits="objectBoundingBox"><stop offset="0" stop-color="#d9000d"/><stop offset="1" stop-color="#ffc900"/></linearGradient><linearGradient id="c" x1="0.5" y1="-0.008" x2="0.5" y2="0.357" gradientUnits="objectBoundingBox"><stop offset="0" stop-color="#e18600"/><stop offset="0.245" stop-color="#eda000"/><stop offset="0.512" stop-color="#f6b700"/><stop offset="0.769" stop-color="#fcc400"/><stop offset="1" stop-color="#ffc900"/></linearGradient><linearGradient id="d" x1="0.27" y1="0.244" x2="0.468" y2="0.602" gradientUnits="objectBoundingBox"><stop offset="0" stop-color="#e18600"/><stop offset="0.201" stop-color="#eda000"/><stop offset="0.42" stop-color="#f6b700"/><stop offset="0.63" stop-color="#fcc400"/><stop offset="0.82" stop-color="#ffc900"/><stop offset="1" stop-color="#ffc900"/></linearGradient></defs><g transform="translate(1567.795 91.074)"><g transform="translate(-1263.169 -77.433)"><rect class="a" width="1.503" height="27.607" transform="translate(0)"/><path class="a" d="M1053.359,326.935a5.688,5.688,0,0,1-2.213-2.154,6.325,6.325,0,0,1,0-6.166,5.68,5.68,0,0,1,2.222-2.154,6.5,6.5,0,0,1,3.175-.777,6.581,6.581,0,0,1,2.433.439,5.047,5.047,0,0,1,1.892,1.284l-.794.794a4.711,4.711,0,0,0-3.5-1.4,5.133,5.133,0,0,0-2.551.641,4.687,4.687,0,0,0-1.8,1.757,5.126,5.126,0,0,0,0,5,4.68,4.68,0,0,0,1.8,1.757,5.133,5.133,0,0,0,2.551.642,4.648,4.648,0,0,0,3.5-1.418l.794.794a5.118,5.118,0,0,1-1.9,1.292,6.54,6.54,0,0,1-2.441.448,6.454,6.454,0,0,1-3.167-.777" transform="translate(-1030.132 -308.182)"/><path class="a" d="M1074.086,320.8a3.362,3.362,0,0,1,.929,2.576v5.506h-1.149V327.5a2.757,2.757,0,0,1-1.191,1.081,4.168,4.168,0,0,1-1.866.389,3.654,3.654,0,0,1-2.365-.71,2.441,2.441,0,0,1-.059-3.7,4.007,4.007,0,0,1,2.61-.693h2.821v-.541a2.275,2.275,0,0,0-.643-1.748,2.652,2.652,0,0,0-1.875-.6,4.751,4.751,0,0,0-1.621.279,4.081,4.081,0,0,0-1.334.768l-.541-.9a4.775,4.775,0,0,1,1.621-.887,6.308,6.308,0,0,1,1.994-.313,3.763,3.763,0,0,1,2.669.871m-1.352,6.757a2.784,2.784,0,0,0,1.081-1.343V324.76h-2.788q-2.28,0-2.281,1.588a1.452,1.452,0,0,0,.593,1.225,2.688,2.688,0,0,0,1.655.448,3.161,3.161,0,0,0,1.74-.464" transform="translate(-1035.292 -309.453)"/><path class="a" d="M1096.563,320.892a3.868,3.868,0,0,1,.955,2.838v5.152h-1.2v-5.034a3.017,3.017,0,0,0-.667-2.112,2.432,2.432,0,0,0-1.884-.727,2.83,2.83,0,0,0-2.179.854,3.326,3.326,0,0,0-.794,2.356v4.662h-1.2v-5.034a3.015,3.015,0,0,0-.667-2.112,2.451,2.451,0,0,0-1.9-.727,2.837,2.837,0,0,0-2.171.854,3.3,3.3,0,0,0-.8,2.356v4.662h-1.2V320H1084v1.621a3.2,3.2,0,0,1,1.317-1.25,4.149,4.149,0,0,1,1.942-.439,3.808,3.808,0,0,1,1.934.473,2.908,2.908,0,0,1,1.225,1.4,3.466,3.466,0,0,1,1.411-1.377,4.345,4.345,0,0,1,2.1-.5,3.53,3.53,0,0,1,2.626.963" transform="translate(-1039.873 -309.453)"/><path class="a" d="M1115.286,318.963a4.052,4.052,0,0,1,1.588,1.6,5.082,5.082,0,0,1,0,4.7,4.1,4.1,0,0,1-1.588,1.6,4.505,4.505,0,0,1-2.263.574,4.185,4.185,0,0,1-2-.473,3.646,3.646,0,0,1-1.427-1.369v1.757h-1.149V314.816h1.2v5.338a3.7,3.7,0,0,1,1.427-1.309,4.2,4.2,0,0,1,1.951-.448,4.558,4.558,0,0,1,2.263.566m-.658,6.977a3.043,3.043,0,0,0,1.191-1.225,4.013,4.013,0,0,0,0-3.615,3.044,3.044,0,0,0-1.191-1.225,3.55,3.55,0,0,0-3.387,0,3.053,3.053,0,0,0-1.182,1.225,4,4,0,0,0,0,3.615,3.053,3.053,0,0,0,1.182,1.225,3.545,3.545,0,0,0,3.387,0" transform="translate(-1047.539 -307.921)"/><path class="a" d="M1124.664,316.269a.834.834,0,0,1-.253-.609.814.814,0,0,1,.253-.591.852.852,0,0,1,.625-.254.868.868,0,0,1,.625.245.787.787,0,0,1,.253.583.884.884,0,0,1-1.5.626m.017,2.2h1.2v8.885h-1.2Z" transform="translate(-1052.323 -307.921)"/><path class="a" d="M1136.744,320.8a3.362,3.362,0,0,1,.929,2.576v5.506h-1.149V327.5a2.75,2.75,0,0,1-1.191,1.081,4.17,4.17,0,0,1-1.866.389,3.654,3.654,0,0,1-2.365-.71,2.441,2.441,0,0,1-.059-3.7,4.009,4.009,0,0,1,2.61-.693h2.821v-.541a2.272,2.272,0,0,0-.643-1.748,2.651,2.651,0,0,0-1.875-.6,4.749,4.749,0,0,0-1.621.279,4.079,4.079,0,0,0-1.334.768l-.541-.9a4.776,4.776,0,0,1,1.621-.887,6.312,6.312,0,0,1,1.995-.313,3.759,3.759,0,0,1,2.668.871m-1.352,6.757a2.78,2.78,0,0,0,1.081-1.343V324.76h-2.788q-2.279,0-2.28,1.588a1.453,1.453,0,0,0,.592,1.225,2.69,2.69,0,0,0,1.655.448,3.161,3.161,0,0,0,1.74-.464" transform="translate(-1054.065 -309.453)"/><path class="a" d="M1152.7,320.9a3.8,3.8,0,0,1,.988,2.83v5.152h-1.2v-5.034a2.941,2.941,0,0,0-.693-2.111,2.6,2.6,0,0,0-1.976-.727,3.035,3.035,0,0,0-2.272.854,3.221,3.221,0,0,0-.837,2.356v4.663h-1.2V320h1.149v1.639a3.335,3.335,0,0,1,1.36-1.259,4.351,4.351,0,0,1,2.018-.448,3.629,3.629,0,0,1,2.661.971" transform="translate(-1058.646 -309.454)"/><path class="a" d="M1169.615,314.816V327.35h-1.148v-1.757a3.644,3.644,0,0,1-1.428,1.369,4.185,4.185,0,0,1-2,.473,4.509,4.509,0,0,1-2.264-.574,4.091,4.091,0,0,1-1.587-1.6,5.076,5.076,0,0,1,0-4.7,4.043,4.043,0,0,1,1.587-1.6,4.562,4.562,0,0,1,2.264-.566,4.2,4.2,0,0,1,1.95.448,3.7,3.7,0,0,1,1.428,1.309v-5.338Zm-2.8,11.124a3.062,3.062,0,0,0,1.181-1.225,4,4,0,0,0,0-3.615,3.062,3.062,0,0,0-1.181-1.225,3.533,3.533,0,0,0-3.379,0,3.058,3.058,0,0,0-1.182,1.225,4,4,0,0,0,0,3.615,3.057,3.057,0,0,0,1.182,1.225,3.528,3.528,0,0,0,3.379,0" transform="translate(-1063.169 -307.921)"/><path class="a" d="M1179.174,328.383a4.244,4.244,0,0,1-1.621-1.613,4.889,4.889,0,0,1,0-4.663,4.194,4.194,0,0,1,1.621-1.6,4.951,4.951,0,0,1,4.629,0,4.138,4.138,0,0,1,1.614,1.6,4.959,4.959,0,0,1,0,4.663,4.187,4.187,0,0,1-1.614,1.613,4.888,4.888,0,0,1-4.629,0m4.012-.912a3,3,0,0,0,1.175-1.225,4.072,4.072,0,0,0,0-3.615,3,3,0,0,0-1.175-1.225,3.565,3.565,0,0,0-3.395,0,3.06,3.06,0,0,0-1.182,1.225,4.007,4.007,0,0,0,0,3.615,3.06,3.06,0,0,0,1.182,1.225,3.56,3.56,0,0,0,3.395,0" transform="translate(-1068.068 -309.453)"/><path class="a" d="M1201.564,326.935a5.685,5.685,0,0,1-2.213-2.154,6.323,6.323,0,0,1,0-6.166,5.679,5.679,0,0,1,2.221-2.154,6.506,6.506,0,0,1,3.175-.777,6.58,6.58,0,0,1,2.432.439,5.046,5.046,0,0,1,1.892,1.284l-.794.794a4.709,4.709,0,0,0-3.5-1.4,5.137,5.137,0,0,0-2.551.641,4.7,4.7,0,0,0-1.8,1.757,5.128,5.128,0,0,0,0,5,4.689,4.689,0,0,0,1.8,1.757,5.137,5.137,0,0,0,2.551.642,4.647,4.647,0,0,0,3.5-1.418l.794.794a5.116,5.116,0,0,1-1.9,1.292,6.536,6.536,0,0,1-2.44.448,6.456,6.456,0,0,1-3.168-.777" transform="translate(-1074.536 -308.182)"/><path class="a" d="M1217.4,328.383a4.234,4.234,0,0,1-1.621-1.613,4.882,4.882,0,0,1,0-4.663,4.184,4.184,0,0,1,1.621-1.6,4.949,4.949,0,0,1,4.628,0,4.137,4.137,0,0,1,1.614,1.6,4.954,4.954,0,0,1,0,4.663,4.186,4.186,0,0,1-1.614,1.613,4.887,4.887,0,0,1-4.628,0m4.012-.912a3.005,3.005,0,0,0,1.174-1.225,4.077,4.077,0,0,0,0-3.615,3,3,0,0,0-1.174-1.225,3.566,3.566,0,0,0-3.4,0,3.059,3.059,0,0,0-1.182,1.225,4,4,0,0,0,0,3.615,3.06,3.06,0,0,0,1.182,1.225,3.561,3.561,0,0,0,3.4,0" transform="translate(-1079.521 -309.453)"/><path class="a" d="M1238.778,320.9a3.8,3.8,0,0,1,.988,2.83v5.152h-1.2v-5.034a2.941,2.941,0,0,0-.693-2.111,2.6,2.6,0,0,0-1.976-.727,3.035,3.035,0,0,0-2.272.854,3.221,3.221,0,0,0-.836,2.356v4.663h-1.2V320h1.149v1.639a3.331,3.331,0,0,1,1.361-1.259,4.345,4.345,0,0,1,2.017-.448,3.63,3.63,0,0,1,2.661.971" transform="translate(-1084.435 -309.454)"/><path class="a" d="M1252.005,327.54a2.279,2.279,0,0,1-.836.465,3.41,3.41,0,0,1-1.039.16,2.353,2.353,0,0,1-2.6-2.584v-5.372h-1.588V319.2h1.588v-1.942h1.2V319.2h2.7v1.013h-2.7v5.3a1.676,1.676,0,0,0,.4,1.208,1.505,1.505,0,0,0,1.14.414,2.2,2.2,0,0,0,.717-.118,1.782,1.782,0,0,0,.6-.338Z" transform="translate(-1088.735 -308.651)"/><path class="a" d="M1257.578,316.269a.834.834,0,0,1-.253-.609.813.813,0,0,1,.253-.591.852.852,0,0,1,.625-.254.868.868,0,0,1,.625.245.785.785,0,0,1,.253.583.884.884,0,0,1-1.5.626m.017,2.2h1.2v8.885h-1.2Z" transform="translate(-1092.146 -307.921)"/><path class="a" d="M1272.041,320v7.8a4.528,4.528,0,0,1-1.105,3.353,4.58,4.58,0,0,1-3.336,1.089,7.45,7.45,0,0,1-2.341-.363,4.822,4.822,0,0,1-1.8-1.005l.609-.913a4.555,4.555,0,0,0,1.563.9,5.837,5.837,0,0,0,1.934.321,3.414,3.414,0,0,0,2.484-.786,3.305,3.305,0,0,0,.794-2.441v-1.132a3.614,3.614,0,0,1-1.461,1.284,4.516,4.516,0,0,1-2,.439,4.723,4.723,0,0,1-2.272-.548,4.052,4.052,0,0,1-1.605-1.537,4.569,4.569,0,0,1,0-4.468,4.03,4.03,0,0,1,1.6-1.52,4.768,4.768,0,0,1,2.281-.541,4.506,4.506,0,0,1,2.043.456,3.681,3.681,0,0,1,1.469,1.318V320Zm-2.8,7.069a2.99,2.99,0,0,0,1.208-1.157,3.3,3.3,0,0,0,.431-1.689,3.259,3.259,0,0,0-.431-1.68,3.028,3.028,0,0,0-1.2-1.149,3.9,3.9,0,0,0-3.479-.008,2.954,2.954,0,0,0-1.2,1.149,3.523,3.523,0,0,0,0,3.379,3,3,0,0,0,1.2,1.157,3.593,3.593,0,0,0,1.731.414,3.642,3.642,0,0,0,1.74-.414" transform="translate(-1093.822 -309.453)"/><path class="a" d="M1281.677,328.383a4.242,4.242,0,0,1-1.62-1.613,4.881,4.881,0,0,1,0-4.663,4.192,4.192,0,0,1,1.62-1.6,4.95,4.95,0,0,1,4.628,0,4.136,4.136,0,0,1,1.614,1.6,4.953,4.953,0,0,1,0,4.663,4.185,4.185,0,0,1-1.614,1.613,4.887,4.887,0,0,1-4.628,0m4.012-.912a3,3,0,0,0,1.174-1.225,4.078,4.078,0,0,0,0-3.615,3,3,0,0,0-1.174-1.225,3.565,3.565,0,0,0-3.395,0,3.055,3.055,0,0,0-1.182,1.225,4,4,0,0,0,0,3.615,3.056,3.056,0,0,0,1.182,1.225,3.56,3.56,0,0,0,3.395,0" transform="translate(-1098.779 -309.453)"/></g><g transform="translate(-1567.795 -91.074)"><g transform="translate(228.343 0)"><g transform="translate(0 0)"><path class="b" d="M353.931,294.387c-14.777.255-26.994,10.568-27.531,24.747a25.695,25.695,0,0,0,43.407,19.561c4.669-4.454,4.479-12.288.764-8.734a21.967,21.967,0,0,1-16.013,6.012c-11.867-.425-21.128-10.007-20.68-21.4.413-10.572,10.891-18.939,20.276-19.444l.245-.745C354.243,294.384,354.09,294.384,353.931,294.387Z" transform="translate(-326.382 -294.384)"/><path class="c" d="M438.21,295.133c11.927.721,21.743,10.881-12.961,21.029a49.508,49.508,0,0,1,15.37,5.882c29.71-15.105,12.81-27.714-4-27.662l-.245.745A15.877,15.877,0,0,1,438.21,295.133Z" transform="translate(-408.599 -294.383)"/><path class="d" d="M403.85,300.445a22.5,22.5,0,0,1,12.778-5.316,15.889,15.889,0,0,1,1.838.005c5.847.355,11.188,2.973,11.021,6.754l2.921-3.441c-3.906-2.586-9.725-4.08-15.536-4.063-.156,0-.309,0-.469,0a30.326,30.326,0,0,0-14.9,4.11Z" transform="translate(-388.855 -294.383)"/><path class="e" d="M449.793,415.589c-.008-.135-.491-3.5-.491-3.5-1.2-7.975.479-15.712,12.684-16.344-17.7-8.51-29.474-.363-38.1,1.544C431.735,398.271,448.281,407.141,449.793,415.589Z" transform="translate(-407.465 -375.512)"/><path class="f" d="M517.185,428.476c-7.54,3.108-6.773,11.717-6.047,16.761a9.569,9.569,0,0,1-.844,6.829c-2.169,3.69-5.674,6.469-12.437,8.281C515.192,461.143,535.031,444.494,517.185,428.476Z" transform="translate(-468.979 -405.893)"/></g></g><g transform="translate(0 13.201)"><path class="a" d="M-436.106-58.37a14.094,14.094,0,0,1-3.822.65c-2.912,0-3.516-2.555-3.516-4.7,0-3.317,1.2-4.995,3.579-4.995a6.07,6.07,0,0,1,1.973.29l2.1.844.042-2.755-.284-.117a12.724,12.724,0,0,0-4.654-1.022c-4.263,0-7.017,3.054-7.017,7.779,0,4.5,2.655,7.526,6.618,7.526a13.623,13.623,0,0,0,5.664-1.409l.379-.165-.609-2.058Z" transform="translate(499.201 76.58)"/><path class="a" d="M-464.339-63.76a4.259,4.259,0,0,0,2.755-4.406,4.626,4.626,0,0,0-2.832-4.572c-1.26-.521-2.44-.645-6.027-.645h-7.6v2.175s1.837.267,2.387.35v17.944h6.037c2.964,0,4.212-.182,5.554-.8a5.376,5.376,0,0,0,3.209-5.061,4.689,4.689,0,0,0-3.487-4.985m-7.047-6.98h1.177c1.572-.005,2.81-.005,3.57.647a2.633,2.633,0,0,1,.791,2.042c0,2.034-.623,2.839-3.024,3.078l-1.723.182-.791,1.324Zm4.895,14.4c-.954.72-2.374.778-4.134.778h-.761v-6.728l.1.019h1.4c1.536,0,2.774.048,3.567.679a3.226,3.226,0,0,1,1.019,2.531,3.324,3.324,0,0,1-1.192,2.722" transform="translate(478.038 74.339)"/><path class="a" d="M-393.713-63.76a4.257,4.257,0,0,0,2.761-4.406,4.632,4.632,0,0,0-2.834-4.572c-1.26-.521-2.443-.645-6.025-.645h-7.6v2.175s1.84.267,2.389.35v17.944h6.039c2.963,0,4.21-.182,5.553-.8a5.375,5.375,0,0,0,3.207-5.061,4.69,4.69,0,0,0-3.491-4.985m-7.044-6.98h1.18c1.565-.005,2.806-.005,3.564.647a2.6,2.6,0,0,1,.791,2.042c0,2.034-.621,2.839-3.024,3.078l-1.722.182-.789,1.324Zm4.895,14.4c-.954.72-2.375.778-4.139.778h-.756v-6.728l.1.019h1.4c1.536,0,2.774.048,3.564.679a3.2,3.2,0,0,1,1.024,2.531,3.32,3.32,0,0,1-1.194,2.722" transform="translate(527.319 74.339)"/><path class="a" d="M-446.808-70.172a12.933,12.933,0,0,0-4.635,1.192c-.024-.336-.081-1.161-.081-1.161l-6.154.783V-67.2h2.265v12.046h4.037s.036-10.643.036-11.253A10.273,10.273,0,0,1-448.214-67a1.86,1.86,0,0,1,1.343.377,3.093,3.093,0,0,1,.372,2.058l0,9.407h4.078v-9.623c0-2.233-.1-2.964-.8-3.873a4.242,4.242,0,0,0-3.579-1.521" transform="translate(492.244 76.579)"/><path class="a" d="M-432.56-70.171c-4.533,0-7.355,2.939-7.355,7.669,0,4.781,2.75,7.637,7.355,7.637,4.518,0,7.328-2.937,7.328-7.665,0-4.783-2.737-7.64-7.328-7.64m-.025,12.66c-1.314,0-3.061-.518-3.061-4.991,0-4.4,1.564-4.993,3.087-4.993,1.312,0,3.061.514,3.061,4.964,0,4.423-1.559,5.02-3.086,5.02" transform="translate(504.639 76.58)"/><path class="a" d="M-369.979-70.171c-4.536,0-7.353,2.939-7.353,7.669,0,4.781,2.75,7.637,7.353,7.637,4.516,0,7.326-2.937,7.326-7.665,0-4.783-2.738-7.64-7.326-7.64m-.034,12.66c-1.314,0-3.054-.518-3.054-4.991,0-4.4,1.557-4.993,3.088-4.993,1.314,0,3.061.514,3.061,4.964,0,4.423-1.564,5.02-3.1,5.02" transform="translate(548.308 76.58)"/><path class="a" d="M-359.676-56.567l-2.864.433c-.638,0-.807-.166-.912-.324-.085-.146-.1-.244-.1-1.384,0-.127.007-7.141.007-7.952h4.044v-2.5h-4.044V-72.19l-.508.041-3.579.3v13.93c0,1.547.129,2.533.788,3.307a3.554,3.554,0,0,0,2.983,1.121,12.147,12.147,0,0,0,4.4-.966l.4-.158Z" transform="translate(555.075 75.171)"/><path class="a" d="M-388.774-70.171c-4.533,0-7.348,2.939-7.348,7.669,0,4.781,2.749,7.637,7.348,7.637,4.521,0,7.326-2.937,7.326-7.665,0-4.783-2.735-7.64-7.326-7.64m-.027,12.66c-1.314,0-3.059-.518-3.059-4.991,0-4.4,1.56-4.993,3.086-4.993,1.314,0,3.064.514,3.064,4.964,0,4.423-1.562,5.02-3.092,5.02" transform="translate(535.197 76.58)"/><path class="a" d="M-376.544-69.145a6.544,6.544,0,0,0-3.171-.808c-4.065,0-6.949,3.234-6.949,7.769,0,4.348,2.287,7.076,5.947,7.076a10.773,10.773,0,0,0,4.061-1.143v1.17c0,2.535-.917,3.261-4.088,3.261a22.707,22.707,0,0,1-4.866-.587v2.45a25.231,25.231,0,0,0,5.839.864,10.471,10.471,0,0,0,4.857-.978c1.778-.946,2.436-2.283,2.436-4.845V-69.761h-4.066Zm-.112,10.888a11.512,11.512,0,0,1-1.886.171c-2.46,0-3.806-1.589-3.806-4.513,0-3.036,1.518-4.791,4.177-4.791a7.738,7.738,0,0,1,1.516.139Z" transform="translate(541.796 76.732)"/><path class="a" d="M-453.181-69.7h-3.976v.609a6.366,6.366,0,0,0-3.105-.8c-3.978,0-6.806,3.219-6.806,7.74,0,4.329,2.238,7.049,5.825,7.049a8.63,8.63,0,0,0,3.973-1.479v1.345l.083-.01,5.655-.569v-2.419h-1.649Zm-3.968,11.524a11.618,11.618,0,0,1-1.932.173c-2.509,0-3.886-1.609-3.886-4.564,0-3.071,1.555-4.844,4.27-4.844a7.726,7.726,0,0,1,1.548.144Z" transform="translate(485.692 76.771)"/><path class="a" d="M-348.372-69.7h-3.98v.609a6.332,6.332,0,0,0-3.1-.8c-3.985,0-6.808,3.219-6.808,7.74,0,4.329,2.236,7.049,5.823,7.049a8.669,8.669,0,0,0,3.978-1.479v1.345l5.733-.579v-2.419h-1.647Zm-3.969,11.524a11.615,11.615,0,0,1-1.93.173c-2.508,0-3.888-1.609-3.888-4.564,0-3.071,1.553-4.844,4.272-4.844a7.742,7.742,0,0,1,1.547.144Z" transform="translate(558.825 76.771)"/><path class="a" d="M-351.992-70.674l-.966-3.1-.424.173-6.353,2.574.557,1.849Z" transform="translate(560.586 74.067)"/><path class="a" d="M-413.841-73.946l-.207.019-.48.058-5.37.684v1.81h1.978c0,.328,0,4.311,0,4.723a9.433,9.433,0,0,0-5.871-.311c-2.815.946-4.4,3.486-4.482,7.158-.078,3.324,1.64,6.059,4.378,6.959,2.01.66,4.676-.08,6.16-.791.014.29.048,1.2.048,1.2l5.419-.716v-1.813h-1.735c0-.37.165-18.978.165-18.978m-4.073,18.467c-1.83.492-3.861.862-5.173-.72a5.772,5.772,0,0,1-.918-3.7c0-.158.007-.321.007-.482a4.884,4.884,0,0,1,1.238-3.419c1.25-1.409,3.387-1.127,4.947-.4,0,0-.1,8.426-.1,8.718" transform="translate(512.759 73.946)"/><path class="a" d="M-411.04-70.174a7.512,7.512,0,0,0-2.6.35c-2.992.976-4.679,3.6-4.766,7.382-.087,3.428,1.742,6.243,4.65,7.168,2.574.82,6.341-.071,8.725-1.374l.131-.068-.677-2.073-1.34.423c-1.934.533-4.419,1.52-6.014-.329a5.765,5.765,0,0,1-.986-3.713l7.9.156h1.187l.012-.171c.029-.346.046-.691.046-1.024,0-6.873-6-6.718-6.268-6.727m-2.779,5.732c.041-.255.146-3.219,2.79-3.219,2.689,0,2.725,2.9,2.764,3.219Z" transform="translate(519.643 76.575)"/></g></g></g></svg>