<svg xmlns="http://www.w3.org/2000/svg" xmlns:xlink="http://www.w3.org/1999/xlink" width="22.424" height="223.97" viewBox="0 0 22.424 223.97"><defs><style>.a,.d{fill:#fff;}.b{clip-path:url(#a);}.c{clip-path:url(#b);}.d{fill-rule:evenodd;}</style><clipPath id="a"><rect class="a" width="22.424" height="223.97"/></clipPath><clipPath id="b"><rect class="a" width="22.421" height="223.97"/></clipPath></defs><g transform="translate(0 223.97) rotate(-90)"><g transform="translate(223.97) rotate(90)"><g class="b"><g class="c"><path class="a" d="M9.956,5.652,0,9.175V7.021L7.361,4.53,0,2.11V0L9.956,3.527Z" transform="translate(6.606 211.36)"/></g><g class="c"><rect class="a" width="9.956" height="1.985" transform="translate(6.606 208.39)"/></g><g class="c"><path class="a" d="M6.457,4.291H4.774V0H8.741A5.289,5.289,0,0,1,9.825,1.819a6.448,6.448,0,0,1,.456,2.4,5.5,5.5,0,0,1-.651,2.7A4.274,4.274,0,0,1,7.758,8.648a6.126,6.126,0,0,1-2.651.572A5.939,5.939,0,0,1,2.34,8.585a4.459,4.459,0,0,1-1.847-1.9A4.969,4.969,0,0,1,0,4.327,4.73,4.73,0,0,1,.774,1.454,3.587,3.587,0,0,1,2.927.122L3.294,2.11A1.963,1.963,0,0,0,2.139,2.9,2.325,2.325,0,0,0,1.7,4.327,2.714,2.714,0,0,0,2.546,6.4a3.5,3.5,0,0,0,2.479.767,3.929,3.929,0,0,0,2.658-.775,2.61,2.61,0,0,0,.882-2.048A3.359,3.359,0,0,0,8.315,3.1a3.773,3.773,0,0,0-.6-1.085H6.457Z" transform="translate(6.449 197.592)"/></g><g class="c"><rect class="a" width="9.956" height="1.996" transform="translate(6.606 193.799)"/></g><g class="c"><path class="a" d="M9.874,6.954H0V4.962H8.2V0H9.874Z" transform="translate(6.688 184.875)"/></g><g class="c"><path class="d" d="M9.952,0V2.173l-2.258.856V6.976l2.258.812V9.906L0,6.065V3.944ZM6.019,3.671,2.329,5.032l3.69,1.332Z" transform="translate(6.61 174.542)"/></g><g class="c"><path class="d" d="M0,8.275V4.626A6.866,6.866,0,0,1,.2,2.752a3.271,3.271,0,0,1,.912-1.49A4.215,4.215,0,0,1,2.729.325,7.179,7.179,0,0,1,5.077,0,6.467,6.467,0,0,1,7.2.306,4.309,4.309,0,0,1,8.947,1.358a3.421,3.421,0,0,1,.8,1.395,6.354,6.354,0,0,1,.213,1.767V8.275Zm1.69-2H8.274V4.8a5.425,5.425,0,0,0-.093-1.21,1.846,1.846,0,0,0-.4-.8,2.152,2.152,0,0,0-.957-.513,6.232,6.232,0,0,0-1.832-.214,5.651,5.651,0,0,0-1.772.214,2.091,2.091,0,0,0-.965.553,1.79,1.79,0,0,0-.467.919A9.123,9.123,0,0,0,1.69,5.379v.9Z" transform="translate(6.606 165.208)"/></g><g class="c"><path class="d" d="M5.2,9.574a6.209,6.209,0,0,1-2.55-.45A4.451,4.451,0,0,1,1.286,8.2a3.739,3.739,0,0,1-.9-1.284A5.348,5.348,0,0,1,0,4.8a4.645,4.645,0,0,1,1.361-3.5A5.319,5.319,0,0,1,5.152,0a5.247,5.247,0,0,1,3.78,1.306,4.567,4.567,0,0,1,1.353,3.461A4.648,4.648,0,0,1,8.932,8.275,5.165,5.165,0,0,1,5.2,9.574m-.06-2.04a3.763,3.763,0,0,0,2.568-.8,2.49,2.49,0,0,0,.856-1.959,2.491,2.491,0,0,0-.856-1.952,3.815,3.815,0,0,0-2.6-.767,3.772,3.772,0,0,0-2.557.749,2.514,2.514,0,0,0-.841,1.97,2.557,2.557,0,0,0,.852,2,3.833,3.833,0,0,0,2.576.76" transform="translate(6.445 154.325)"/></g><g class="c"><rect class="a" width="2.153" height="73.154" transform="translate(0 150.816)"/></g><g class="c"><path class="d" d="M6.318,5.194H0V3.04A4.734,4.734,0,0,1,.09,1.918,2.093,2.093,0,0,1,.527,1,2.688,2.688,0,0,1,1.619.258,4.132,4.132,0,0,1,3.122,0,4.18,4.18,0,0,1,4.408.177,3.222,3.222,0,0,1,5.316.59a2.466,2.466,0,0,1,.579.587,2.376,2.376,0,0,1,.31.749,3.73,3.73,0,0,1,.112,1V5.194Zm-.744-.841V3.033a3.244,3.244,0,0,0-.12-.974,1.219,1.219,0,0,0-.329-.564,1.841,1.841,0,0,0-.793-.457A3.8,3.8,0,0,0,3.1.867,2.848,2.848,0,0,0,1.585,1.2a1.581,1.581,0,0,0-.71.775A3.027,3.027,0,0,0,.744,3.04V4.353h4.83Z" transform="translate(13.53 97.193)"/></g><g class="c"><path class="a" d="M6.322,4.689H0V.151H.748v3.7H2.681V.376h.744V3.848H5.582V0h.74Z" transform="translate(13.523 91.349)"/></g><g class="c"><path class="a" d="M4.221.83l.2-.83A2.834,2.834,0,0,1,6.015.944,2.63,2.63,0,0,1,6.554,2.6,3.124,3.124,0,0,1,6.139,4.25a2.778,2.778,0,0,1-1.223.97,4.26,4.26,0,0,1-1.69.336,3.611,3.611,0,0,1-1.72-.38A2.548,2.548,0,0,1,.4,4.11,3.062,3.062,0,0,1,0,2.582,2.593,2.593,0,0,1,.486,1,2.481,2.481,0,0,1,1.847.107l.194.812a2,2,0,0,0-1.013.646,1.717,1.717,0,0,0-.31,1.051,2.07,2.07,0,0,0,.355,1.21,1.924,1.924,0,0,0,.938.671,3.843,3.843,0,0,0,1.215.2A3.827,3.827,0,0,0,4.632,4.46a1.752,1.752,0,0,0,.9-.734,1.958,1.958,0,0,0,.3-1.059,1.751,1.751,0,0,0-.411-1.181A2.091,2.091,0,0,0,4.221.83" transform="translate(13.411 82.462)"/></g><g class="c"><path class="d" d="M3.357,6.006A3.405,3.405,0,0,1,.9,5.158,2.84,2.84,0,0,1,0,3,2.839,2.839,0,0,1,.434,1.439,2.728,2.728,0,0,1,1.593.362,3.84,3.84,0,0,1,3.29,0,3.7,3.7,0,0,1,5.017.391,2.677,2.677,0,0,1,6.165,1.476a3.243,3.243,0,0,1,.389,1.538,2.845,2.845,0,0,1-.441,1.572A2.705,2.705,0,0,1,4.946,5.645a3.693,3.693,0,0,1-1.589.362m.022-.867a2.58,2.58,0,0,0,1.8-.609,1.96,1.96,0,0,0,.654-1.516,1.978,1.978,0,0,0-.665-1.546A2.694,2.694,0,0,0,3.283.86a3.188,3.188,0,0,0-1.342.255,2.04,2.04,0,0,0-.894.756A2.069,2.069,0,0,0,.725,3a2.114,2.114,0,0,0,.609,1.516,2.771,2.771,0,0,0,2.045.627" transform="translate(13.403 75.688)"/></g><g class="c"><path class="a" d="M6.322,3.922H0V3.081H5.582V0h.74Z" transform="translate(13.523 70.734)"/></g><g class="c"><path class="d" d="M3.357,6A3.429,3.429,0,0,1,.9,5.172,2.875,2.875,0,0,1,0,3,2.934,2.934,0,0,1,.434,1.428,2.779,2.779,0,0,1,1.593.369,3.792,3.792,0,0,1,3.29,0,3.7,3.7,0,0,1,5.017.387,2.789,2.789,0,0,1,6.165,1.472,3.244,3.244,0,0,1,6.554,3a2.813,2.813,0,0,1-.441,1.583A2.661,2.661,0,0,1,4.946,5.641,3.54,3.54,0,0,1,3.357,6m.022-.849a2.584,2.584,0,0,0,1.8-.616A2.007,2.007,0,0,0,5.836,3a2,2,0,0,0-.665-1.546,2.691,2.691,0,0,0-1.888-.6,3.187,3.187,0,0,0-1.342.262,2.025,2.025,0,0,0-.894.749A2.069,2.069,0,0,0,.725,2.992a2.1,2.1,0,0,0,.609,1.516,2.726,2.726,0,0,0,2.045.646" transform="translate(13.403 63.99)"/></g><g class="c"><path class="a" d="M6.322,6H0V4.741L4.479,3.261c.411-.133.733-.243.938-.3-.232-.07-.572-.177-1.017-.325L0,1.133V0H6.322V.8H1.032l5.29,1.83v.738L.938,5.191H6.322V6Z" transform="translate(13.523 56.947)"/></g><g class="c"><path class="d" d="M6.318,4.744H0V2.394A3,3,0,0,1,.183,1.229a1.445,1.445,0,0,1,.6-.671A1.506,1.506,0,0,1,1.619.3,1.418,1.418,0,0,1,2.363.52a1.562,1.562,0,0,1,.583.653A1.745,1.745,0,0,1,3.529.31,1.572,1.572,0,0,1,4.49,0a1.809,1.809,0,0,1,.826.192A1.742,1.742,0,0,1,5.9.642a1.639,1.639,0,0,1,.31.7,3.457,3.457,0,0,1,.112,1V4.744ZM2.643,3.922V2.542a3.177,3.177,0,0,0-.064-.775.886.886,0,0,0-.318-.48.861.861,0,0,0-.55-.166,1.048,1.048,0,0,0-.553.148.813.813,0,0,0-.34.432,4.279,4.279,0,0,0-.075.956V3.922Zm2.931,0V2.339a4.1,4.1,0,0,0-.03-.557,1.235,1.235,0,0,0-.179-.476A.891.891,0,0,0,5.021.989,1.049,1.049,0,0,0,4.49.856a1.038,1.038,0,0,0-.621.188.907.907,0,0,0-.359.5,2.641,2.641,0,0,0-.116.919V3.922h2.18Z" transform="translate(13.53 50.908)"/></g><g class="c"><rect class="a" width="6.318" height="0.834" transform="translate(13.53 48.79)"/></g><g class="c"><path class="d" d="M6.322,5.873,0,3.472V2.56L6.322,0V.944l-1.907.727V4.3l1.907.683v.893ZM3.731,4.062V1.933L1.978,2.59c-.535.192-.968.339-1.316.45a7.451,7.451,0,0,1,1.211.328Z" transform="translate(13.523 42.146)"/></g><g class="c"><path class="a" d="M4.393,5l-.064-.789a1.675,1.675,0,0,0,.77-.255,1.224,1.224,0,0,0,.5-.635,2.464,2.464,0,0,0,.191-.956,2.4,2.4,0,0,0-.146-.837A1.19,1.19,0,0,0,5.26.978,1.049,1.049,0,0,0,4.714.812.742.742,0,0,0,4.2.978a1.175,1.175,0,0,0-.381.561,11.327,11.327,0,0,0-.307,1.118,5.573,5.573,0,0,1-.389,1.21,2.035,2.035,0,0,1-.6.679,1.453,1.453,0,0,1-.781.214,1.559,1.559,0,0,1-.9-.277,1.722,1.722,0,0,1-.639-.775A3.279,3.279,0,0,1,0,2.549,3.016,3.016,0,0,1,.224,1.324,1.673,1.673,0,0,1,.89.5,1.92,1.92,0,0,1,1.881.184l.064.8a1.269,1.269,0,0,0-.9.432A1.694,1.694,0,0,0,.733,2.5a1.78,1.78,0,0,0,.28,1.114.826.826,0,0,0,.673.336.7.7,0,0,0,.55-.24,3.161,3.161,0,0,0,.456-1.254,8.469,8.469,0,0,1,.4-1.383A1.858,1.858,0,0,1,3.742.266,1.624,1.624,0,0,1,4.643,0,1.781,1.781,0,0,1,5.6.28a1.956,1.956,0,0,1,.7.83,2.8,2.8,0,0,1,.247,1.2,3.482,3.482,0,0,1-.254,1.443,1.945,1.945,0,0,1-.744.9A2.151,2.151,0,0,1,4.393,5" transform="translate(2.737 139.815)"/></g><g class="c"><path class="a" d="M0,.834V0H3.66A4.3,4.3,0,0,1,5.178.221a1.775,1.775,0,0,1,.9.778,2.59,2.59,0,0,1,.359,1.457A2.962,2.962,0,0,1,6.131,3.9a1.737,1.737,0,0,1-.89.8,4.42,4.42,0,0,1-1.581.236H0V4.11H3.653a3.824,3.824,0,0,0,1.223-.14,1.23,1.23,0,0,0,.591-.531,1.771,1.771,0,0,0,.217-.911,1.714,1.714,0,0,0-.419-1.3A2.4,2.4,0,0,0,3.653.834H0Z" transform="translate(2.834 133.728)"/></g><g class="c"><path class="d" d="M6.33,4.8H0V2.416a7.319,7.319,0,0,1,.056-.956A1.947,1.947,0,0,1,.366.694a1.43,1.43,0,0,1,.6-.5,1.933,1.933,0,0,1,.86-.2A2.018,2.018,0,0,1,3.2.509,2.462,2.462,0,0,1,3.75,2.346V3.962H6.33ZM3.006,3.962V2.346a1.776,1.776,0,0,0-.3-1.158,1.086,1.086,0,0,0-.86-.336,1.116,1.116,0,0,0-.669.207.915.915,0,0,0-.381.52,3.855,3.855,0,0,0-.052.767V3.962Z" transform="translate(2.838 127.559)"/></g><g class="c"><path class="a" d="M6.333,4.689H0V.14H.748V3.859H2.692V.387h.74V3.859h2.15V0h.751Z" transform="translate(2.834 121.8)"/></g><g class="c"><path class="d" d="M6.333,5.538H0V2.756a3.488,3.488,0,0,1,.179-1.28,1.386,1.386,0,0,1,.6-.694A1.79,1.79,0,0,1,1.735.528,1.611,1.611,0,0,1,2.868.941a2.269,2.269,0,0,1,.594,1.347,1.97,1.97,0,0,1,.307-.505,4.589,4.589,0,0,1,.849-.69L6.333,0V1.04l-1.32.83c-.378.251-.665.443-.875.609a2.013,2.013,0,0,0-.415.41,1.643,1.643,0,0,0-.176.395,2.625,2.625,0,0,0-.026.461V4.7H6.333ZM2.8,4.7V2.914a2.813,2.813,0,0,0-.116-.885,1.009,1.009,0,0,0-.37-.483.99.99,0,0,0-.576-.166A.95.95,0,0,0,.987,1.7,1.514,1.514,0,0,0,.7,2.712V4.7Z" transform="translate(2.834 115.104)"/></g><g class="c"><rect class="a" width="6.333" height="0.823" transform="translate(2.834 113.352)"/></g><g class="c"><path class="a" d="M6.333,4.933H0V4.077L4.984.793H0V0H6.333V.834L1.361,4.139H6.333Z" transform="translate(2.834 106.955)"/></g><g class="c"><path class="a" d="M6.333,2.9H.748V4.98H0V0H.748V2.073H6.333Z" transform="translate(2.834 101.045)"/></g><g class="c"><path class="a" d="M6.333,4.689H0V.151H.748v3.7H2.692V.391h.74V3.852h2.15V0h.751Z" transform="translate(2.834 95.489)"/></g><g class="c"><path class="a" d="M6.333,4.936H0V4.091L4.984.786H0V0H6.333V.852L1.361,4.15H6.333Z" transform="translate(2.834 89.412)"/></g><g class="c"><path class="d" d="M6.33,5.206H0V3.04A4.907,4.907,0,0,1,.093,1.911,1.946,1.946,0,0,1,.542,1a2.371,2.371,0,0,1,1.08-.73A4.02,4.02,0,0,1,3.126,0,5.108,5.108,0,0,1,4.408.17a3.165,3.165,0,0,1,.927.439,2.241,2.241,0,0,1,.561.568,2.3,2.3,0,0,1,.322.749,4.664,4.664,0,0,1,.112,1V5.206Zm-.748-.834V3.033a3.177,3.177,0,0,0-.116-.974,1.421,1.421,0,0,0-.333-.572,2,2,0,0,0-.8-.45A3.717,3.717,0,0,0,3.118.867,2.933,2.933,0,0,0,1.589,1.2a1.527,1.527,0,0,0-.71.786,3.134,3.134,0,0,0-.135,1.07V4.372H5.582Z" transform="translate(2.841 82.812)"/></g><g class="c"><path class="a" d="M6.333,4.682H0V.148H.748v3.7H2.692V.391h.74V3.848h2.15V0h.751Z" transform="translate(2.834 76.976)"/></g><g class="c"><path class="a" d="M6.333,4.944H0V4.1L4.984.793H0V0H6.333V.856L1.361,4.15H6.333Z" transform="translate(2.834 70.892)"/></g><g class="c"><path class="a" d="M4.206.834,4.43,0A2.864,2.864,0,0,1,6,.937,2.62,2.62,0,0,1,6.539,2.6a3.068,3.068,0,0,1-.415,1.66,2.613,2.613,0,0,1-1.211.959,4.319,4.319,0,0,1-1.694.336A3.821,3.821,0,0,1,1.5,5.18,2.667,2.667,0,0,1,.374,4.11,3.212,3.212,0,0,1,0,2.59,2.551,2.551,0,0,1,.482,1,2.478,2.478,0,0,1,1.839.111L2.03.93a1.929,1.929,0,0,0-1,.627A1.647,1.647,0,0,0,.714,2.6a2.1,2.1,0,0,0,.344,1.229A1.893,1.893,0,0,0,2,4.5a4.045,4.045,0,0,0,1.211.2,3.815,3.815,0,0,0,1.409-.24,1.788,1.788,0,0,0,.9-.723,1.979,1.979,0,0,0,.307-1.07,1.821,1.821,0,0,0-.411-1.192A2.066,2.066,0,0,0,4.206.834" transform="translate(2.737 64.185)"/></g><g class="c"><rect class="a" width="6.333" height="0.823" transform="translate(2.834 62.201)"/></g><g class="c"><path class="d" d="M6.333,5.884,0,3.475v-.9L6.333,0V.948l-1.918.734v2.63l1.918.679ZM3.727,4.066V1.937l-1.746.657c-.516.2-.972.35-1.309.45a6.4,6.4,0,0,1,1.208.332Z" transform="translate(2.834 55.542)"/></g><g class="c"><path class="a" d="M6.333,4.235H0V0H.748V3.413H2.714V.469h.744V3.413H6.333Z" transform="translate(2.834 48.163)"/></g><g class="c"><rect class="a" width="6.333" height="0.83" transform="translate(2.834 46.119)"/></g><g class="c"><path class="a" d="M6.333,4.94H0V4.091L4.984.8H0V0H6.333V.86L1.361,4.143H6.333Z" transform="translate(2.834 39.715)"/></g><g class="c"><path class="d" d="M6.333,5.873,0,3.464V2.575L6.333,0V.937l-1.918.745V4.3l1.918.683ZM3.727,4.066V1.929l-1.746.653c-.516.2-.972.35-1.309.45a7.414,7.414,0,0,1,1.208.343Z" transform="translate(2.834 33.133)"/></g><g class="c"><path class="a" d="M6.333,4.955H0V4.1L4.984.8H0V0H6.333V.849L1.361,4.15H6.333Z" transform="translate(2.834 27.529)"/></g><g class="c"><path class="a" d="M4.206.837,4.43,0A2.88,2.88,0,0,1,6,.952a2.639,2.639,0,0,1,.542,1.66,3.046,3.046,0,0,1-.415,1.656,2.59,2.59,0,0,1-1.211.959,4.454,4.454,0,0,1-1.694.336A3.921,3.921,0,0,1,1.5,5.194,2.729,2.729,0,0,1,.374,4.117,3.12,3.12,0,0,1,0,2.6a2.6,2.6,0,0,1,.482-1.6A2.43,2.43,0,0,1,1.839.125L2.03.944a1.929,1.929,0,0,0-1,.627,1.609,1.609,0,0,0-.314,1.04,2.076,2.076,0,0,0,.344,1.221A1.922,1.922,0,0,0,2,4.5a4.046,4.046,0,0,0,1.211.2,4.152,4.152,0,0,0,1.409-.232,1.8,1.8,0,0,0,.9-.73,1.979,1.979,0,0,0,.307-1.07,1.787,1.787,0,0,0-.411-1.192A2.153,2.153,0,0,0,4.206.837" transform="translate(2.737 20.818)"/></g><g class="c"><rect class="a" width="6.333" height="0.845" transform="translate(2.834 18.823)"/></g><g class="c"><path class="a" d="M6.333,4.682H0V.151H.748V3.859H2.692V.38h.74V3.859h2.15V0h.751Z" transform="translate(2.834 12.665)"/></g><g class="c"><path class="d" d="M6.333,5.538H0V2.745A3.392,3.392,0,0,1,.179,1.483a1.324,1.324,0,0,1,.6-.7A1.732,1.732,0,0,1,1.735.516,1.535,1.535,0,0,1,2.868.952a2.175,2.175,0,0,1,.594,1.336,1.737,1.737,0,0,1,.307-.5,3.76,3.76,0,0,1,.849-.7L6.333,0V1.051l-1.32.826c-.378.251-.665.443-.875.6a1.6,1.6,0,0,0-.415.424,1.11,1.11,0,0,0-.176.38,2.616,2.616,0,0,0-.026.45V4.7H6.333ZM2.8,4.7V2.914a2.89,2.89,0,0,0-.116-.9,1.1,1.1,0,0,0-.37-.483,1.126,1.126,0,0,0-.576-.148.978.978,0,0,0-.748.306A1.555,1.555,0,0,0,.7,2.719V4.7Z" transform="translate(2.834 5.973)"/></g><g class="c"><path class="d" d="M6.333,5.881,0,3.464V2.571L6.333,0V.952l-1.918.734v2.63L6.333,5ZM3.727,4.062V1.937L1.981,2.6c-.516.192-.972.336-1.309.435a8.215,8.215,0,0,1,1.208.339Z" transform="translate(2.834)"/></g><g class="c"><rect class="a" width="2.15" height="73.154" transform="translate(20.275 150.816)"/></g></g></g></g></svg>