<svg xmlns="http://www.w3.org/2000/svg" width="39.954" height="28.096" viewBox="0 0 39.954 28.096">
  <g id="menu" transform="translate(-3 -7.5)">
    <path id="Trazado_11368" data-name="Trazado 11368" d="M3,9.5a2,2,0,0,1,2-2H40.957a2,2,0,1,1,0,4H5A2,2,0,0,1,3,9.5Z" fill="#ffcf00"/>
    <path id="Trazado_11369" data-name="Trazado 11369" d="M3,18.546a2,2,0,0,1,2-2H40.957a2,2,0,1,1,0,4H5A2,2,0,0,1,3,18.546Z" transform="translate(0 3.002)" fill="#ffcf00"/>
    <path id="Trazado_11370" data-name="Trazado 11370" d="M5,25.6a2,2,0,1,0,0,4H40.957a2,2,0,1,0,0-4Z" transform="translate(0 6.005)" fill="#ffcf00"/>
  </g>
</svg>
